<svg version="1.2" baseProfile="tiny" viewBox="0 0 32 32" xmlns:xlink="http://www.w3.org/1999/xlink" xmlns="http://www.w3.org/2000/svg">
<path style="fill:#ffffff;" d="M31.75,6.47405C31.518,6.33905,31.232,6.33905,31,6.47405L16,15.1341L1,6.47405C0.768,6.33905,0.482,6.33905,0.25,6.47405C0.018,6.60705,-0.125,6.85505,-0.125,7.12305V24.8771C-0.125,25.1451,0.018,25.3931,0.25,25.5261C0.366,25.5931,0.496,25.6271,0.625,25.6271C0.754,25.6271,0.884,25.5941,1,25.5261L16,16.8661L31,25.5261C31.116,25.5931,31.246,25.6271,31.375,25.6271C31.504,25.6271,31.634,25.5941,31.75,25.5261C31.982,25.3921,32.125,25.1441,32.125,24.8771V7.12305C32.125,6.85505,31.982,6.60705,31.75,6.47405ZM1.375,8.42205L14.5,16.0001L1.375,23.5781V8.42205ZM30.625,23.5781L17.5,16.0001L30.625,8.42205V23.5781Z"/>
</svg>